<svg width="81" height="82" viewBox="0 0 81 82" fill="none" xmlns="http://www.w3.org/2000/svg">
<path d="M19.0792 37.024C19.0792 36.548 19.0138 36.198 18.8832 35.974C18.7525 35.7407 18.4912 35.624 18.0992 35.624H17.8892V35.26H21.6412C23.4985 35.26 24.9078 35.6613 25.8692 36.464C26.8305 37.2667 27.3112 38.3867 27.3112 39.824C27.3112 40.748 27.1058 41.5647 26.6952 42.274C26.2938 42.974 25.6918 43.52 24.8892 43.912C24.0958 44.304 23.1345 44.5 22.0052 44.5H19.0792V37.024ZM21.9632 43.968C22.6258 43.968 23.2232 43.8047 23.7552 43.478C24.2872 43.142 24.7025 42.666 25.0012 42.05C25.2998 41.4247 25.4492 40.7013 25.4492 39.88C25.4492 39.068 25.2998 38.354 25.0012 37.738C24.7025 37.122 24.2872 36.646 23.7552 36.31C23.2232 35.9647 22.6165 35.792 21.9352 35.792C21.5805 35.792 21.1605 35.8433 20.6752 35.946V43.842C20.9552 43.898 21.1792 43.9353 21.3472 43.954C21.5245 43.9633 21.7298 43.968 21.9632 43.968Z" fill="white"/>
<path d="M37.1073 44.64C36.6127 44.64 36.1647 44.4907 35.7633 44.192C35.362 43.884 34.9373 43.3567 34.4893 42.61L33.0893 40.258H32.3613V44.5H30.7653V37.024C30.7653 36.548 30.7 36.198 30.5693 35.974C30.4387 35.7407 30.1773 35.624 29.7853 35.624H29.5753V35.26H33.3553C34.2793 35.26 35.1193 35.4373 35.8753 35.792C36.6407 36.1373 37.0233 36.8 37.0233 37.78C37.0233 38.48 36.8133 39.012 36.3933 39.376C35.9733 39.74 35.4273 40.0013 34.7553 40.16L36.2253 42.61C36.552 43.1607 36.86 43.5527 37.1493 43.786C37.4387 44.01 37.7327 44.1407 38.0313 44.178V44.5C37.9473 44.5373 37.8167 44.57 37.6393 44.598C37.462 44.626 37.2847 44.64 37.1073 44.64ZM33.2713 39.726C33.5887 39.726 33.9013 39.6607 34.2093 39.53C34.5173 39.3993 34.774 39.1893 34.9793 38.9C35.1847 38.6013 35.2873 38.2233 35.2873 37.766C35.2873 37.3087 35.1847 36.9353 34.9793 36.646C34.774 36.3473 34.5173 36.1327 34.2093 36.002C33.9107 35.862 33.6027 35.792 33.2853 35.792C33.0613 35.792 32.7533 35.8293 32.3613 35.904V39.726H33.2713Z" fill="white"/>
<path d="M39.8712 44.122L45.3312 35.848H42.1532C41.0426 35.848 40.4872 36.4033 40.4872 37.514H40.1232V36.38C40.1232 35.6333 40.5199 35.26 41.3132 35.26H47.5712L41.9012 43.898H47.4452V44.5H39.8712V44.122Z" fill="white"/>
<path d="M50.8291 37.024C50.8291 36.548 50.7637 36.198 50.6331 35.974C50.5024 35.7407 50.2411 35.624 49.8491 35.624H49.6391V35.26H53.3911C55.2484 35.26 56.6577 35.6613 57.6191 36.464C58.5804 37.2667 59.0611 38.3867 59.0611 39.824C59.0611 40.748 58.8557 41.5647 58.4451 42.274C58.0437 42.974 57.4417 43.52 56.6391 43.912C55.8457 44.304 54.8844 44.5 53.7551 44.5H50.8291V37.024ZM53.7131 43.968C54.3757 43.968 54.9731 43.8047 55.5051 43.478C56.0371 43.142 56.4524 42.666 56.7511 42.05C57.0497 41.4247 57.1991 40.7013 57.1991 39.88C57.1991 39.068 57.0497 38.354 56.7511 37.738C56.4524 37.122 56.0371 36.646 55.5051 36.31C54.9731 35.9647 54.3664 35.792 53.6851 35.792C53.3304 35.792 52.9104 35.8433 52.4251 35.946V43.842C52.7051 43.898 52.9291 43.9353 53.0971 43.954C53.2744 43.9633 53.4797 43.968 53.7131 43.968Z" fill="white"/>
<path d="M62.4505 44.696C62.2078 44.696 62.0118 44.6213 61.8625 44.472C61.7132 44.3133 61.6385 44.1127 61.6385 43.87C61.6385 43.6367 61.7132 43.4453 61.8625 43.296C62.0118 43.1373 62.2078 43.058 62.4505 43.058C62.6932 43.058 62.8892 43.1373 63.0385 43.296C63.1878 43.4453 63.2625 43.6367 63.2625 43.87C63.2625 44.1127 63.1878 44.3133 63.0385 44.472C62.8892 44.6213 62.6932 44.696 62.4505 44.696Z" fill="white"/>
</svg>
